<svg width="33" height="33" viewBox="0 0 33 33" fill="none" xmlns="http://www.w3.org/2000/svg">
<path id="Vector" d="M21.7771 31.5391C20.0505 32.1641 18.1912 32.5 16.2537 32.5C14.3162 32.5 12.449 32.1562 10.7302 31.5391C10.7068 31.5312 10.6912 31.5234 10.6677 31.5156C8.32397 30.6562 6.23022 29.2734 4.5271 27.5C1.72241 24.5781 0.00366211 20.6172 0.00366211 16.25C0.00366211 7.27344 7.2771 0 16.2537 0C25.2302 0 32.5037 7.27344 32.5037 16.25C32.5037 20.6172 30.7849 24.5781 27.9802 27.5C27.9021 27.5781 27.824 27.6641 27.7458 27.7422C26.074 29.4141 24.0427 30.7188 21.7849 31.5391H21.7771ZM16.2537 7.17969C15.3865 7.17969 14.6833 7.88281 14.6833 8.75V9.21875C14.2458 9.3125 13.8318 9.44531 13.4412 9.61719C12.2693 10.1484 11.2615 11.1328 11.0115 12.5625C10.8708 13.3594 10.949 14.125 11.2771 14.8281C11.6052 15.5156 12.113 16 12.6287 16.3516C13.5349 16.9688 14.7302 17.3281 15.6443 17.6016L15.8162 17.6562C16.9021 17.9844 17.6443 18.2344 18.1052 18.5703C18.3005 18.7109 18.3708 18.8203 18.3943 18.8828C18.4177 18.9453 18.4646 19.0859 18.4099 19.4062C18.363 19.6797 18.2146 19.9062 17.7849 20.0938C17.3083 20.2969 16.5349 20.3984 15.5349 20.2422C15.0662 20.1641 14.2302 19.8828 13.488 19.625C13.3162 19.5703 13.1521 19.5078 12.988 19.4609C12.1677 19.1875 11.2849 19.6328 11.0115 20.4531C10.738 21.2734 11.1833 22.1562 12.0037 22.4297C12.0974 22.4609 12.2146 22.5 12.3474 22.5469C12.9646 22.7578 13.9333 23.0859 14.6755 23.2578V23.75C14.6755 24.6172 15.3787 25.3203 16.2458 25.3203C17.113 25.3203 17.8162 24.6172 17.8162 23.75V23.3203C18.2302 23.2422 18.6365 23.125 19.0193 22.9609C20.2458 22.4375 21.238 21.4219 21.488 19.9375C21.6287 19.125 21.5662 18.3516 21.2537 17.6406C20.949 16.9375 20.4568 16.4219 19.9333 16.0391C18.9802 15.3516 17.7224 14.9688 16.7771 14.6797L16.7146 14.6641C15.6052 14.3281 14.8552 14.0938 14.3787 13.7734C14.1755 13.6328 14.113 13.5391 14.0974 13.5C14.0818 13.4766 14.0427 13.375 14.0896 13.1094C14.113 12.9609 14.238 12.7031 14.7302 12.4766C15.2302 12.25 16.0115 12.125 16.9646 12.2734C17.3005 12.3281 18.363 12.5312 18.6599 12.6094C19.4958 12.8281 20.3474 12.3359 20.574 11.5C20.8005 10.6641 20.3005 9.8125 19.4646 9.58594C19.1208 9.49219 18.3396 9.33594 17.824 9.24219V8.75C17.824 7.88281 17.1208 7.17969 16.2537 7.17969Z" fill="#808080"/>
</svg>
