<svg width="843" height="904" viewBox="0 0 843 904" fill="none" xmlns="http://www.w3.org/2000/svg">
<g id="Union">
<mask id="path-1-outside-1_50_9583" maskUnits="userSpaceOnUse" x="0" y="0" width="843" height="904" fill="black">
<rect fill="white" width="843" height="904"/>
<path fill-rule="evenodd" clip-rule="evenodd" d="M211.912 11.8631L198.599 2L185.642 11.5993L172.685 2L159.44 11.8125L146.196 2L133.239 11.5992L120.282 2L107.037 11.8126L93.7927 2L80.8359 11.5992L67.8792 2L54.6344 11.8126L41.3896 2L28.4328 11.5992L15.4761 2L2.1632 11.863H2.00011L2 902L840 902L840 11.9758H840.265L826.799 2L813.843 11.5992L800.886 2L787.641 11.8126L774.396 2L761.44 11.5992L748.483 2L735.238 11.8126L721.993 2L709.037 11.5992L696.08 2L682.835 11.8126L669.59 2L656.633 11.5993L643.677 2L631.164 11.2706L618.65 2L605.694 11.5992L592.737 2L579.492 11.8126L566.247 2L553.29 11.5993L540.334 2L527.089 11.8125L513.844 2L500.887 11.5992L487.931 2L474.686 11.8126L461.441 2L448.484 11.5993L435.527 2L422.215 11.8631H421.798L408.485 2L395.528 11.5992L382.571 2L369.327 11.8126L356.082 2L343.125 11.5993L330.168 2L316.923 11.8125L303.679 2L290.722 11.5993L277.765 2L264.52 11.8125L251.276 2L238.319 11.5992L225.362 2L212.049 11.8631H211.912Z"/>
</mask>
<path fill-rule="evenodd" clip-rule="evenodd" d="M211.912 11.8631L198.599 2L185.642 11.5993L172.685 2L159.44 11.8125L146.196 2L133.239 11.5992L120.282 2L107.037 11.8126L93.7927 2L80.8359 11.5992L67.8792 2L54.6344 11.8126L41.3896 2L28.4328 11.5992L15.4761 2L2.1632 11.863H2.00011L2 902L840 902L840 11.9758H840.265L826.799 2L813.843 11.5992L800.886 2L787.641 11.8126L774.396 2L761.44 11.5992L748.483 2L735.238 11.8126L721.993 2L709.037 11.5992L696.08 2L682.835 11.8126L669.59 2L656.633 11.5993L643.677 2L631.164 11.2706L618.65 2L605.694 11.5992L592.737 2L579.492 11.8126L566.247 2L553.29 11.5993L540.334 2L527.089 11.8125L513.844 2L500.887 11.5992L487.931 2L474.686 11.8126L461.441 2L448.484 11.5993L435.527 2L422.215 11.8631H421.798L408.485 2L395.528 11.5992L382.571 2L369.327 11.8126L356.082 2L343.125 11.5993L330.168 2L316.923 11.8125L303.679 2L290.722 11.5993L277.765 2L264.52 11.8125L251.276 2L238.319 11.5992L225.362 2L212.049 11.8631H211.912Z" fill="#F2F2F2"/>
<path d="M198.599 2L199.789 0.392982C199.082 -0.130994 198.115 -0.130994 197.408 0.392981L198.599 2ZM211.912 11.8631L210.721 13.4701C211.066 13.7253 211.483 13.8631 211.912 13.8631V11.8631ZM185.642 11.5993L184.451 13.2063C185.159 13.7303 186.125 13.7303 186.833 13.2063L185.642 11.5993ZM172.685 2L173.876 0.392981C173.168 -0.130994 172.202 -0.130994 171.495 0.392981L172.685 2ZM159.44 11.8125L158.25 13.4195C158.957 13.9435 159.924 13.9435 160.631 13.4195L159.44 11.8125ZM146.196 2L147.386 0.392982C146.679 -0.130994 145.712 -0.130994 145.005 0.392981L146.196 2ZM133.239 11.5992L132.048 13.2063C132.756 13.7302 133.722 13.7302 134.43 13.2063L133.239 11.5992ZM120.282 2L121.473 0.392981C120.766 -0.130994 119.799 -0.130994 119.092 0.392982L120.282 2ZM107.037 11.8126L105.847 13.4196C106.554 13.9436 107.521 13.9436 108.228 13.4196L107.037 11.8126ZM93.7927 2L94.9833 0.392982C94.2761 -0.130994 93.3094 -0.130994 92.6021 0.392982L93.7927 2ZM80.8359 11.5992L79.6454 13.2063C80.3526 13.7302 81.3193 13.7302 82.0265 13.2063L80.8359 11.5992ZM67.8792 2L69.0698 0.392982C68.3625 -0.130994 67.3958 -0.130994 66.6886 0.392981L67.8792 2ZM54.6344 11.8126L53.4438 13.4196C54.1511 13.9436 55.1177 13.9436 55.825 13.4196L54.6344 11.8126ZM41.3896 2L42.5802 0.392981C41.873 -0.130994 40.9063 -0.130994 40.199 0.392981L41.3896 2ZM28.4328 11.5992L27.2423 13.2062C27.9495 13.7302 28.9162 13.7302 29.6234 13.2062L28.4328 11.5992ZM15.4761 2L16.6667 0.392982C15.9594 -0.130994 14.9927 -0.130994 14.2855 0.392981L15.4761 2ZM2.1632 11.863V13.863C2.59192 13.863 3.0093 13.7253 3.35378 13.4701L2.1632 11.863ZM2.00011 11.863V9.86305C0.89554 9.86305 0.000109087 10.7585 0.000108952 11.863L2.00011 11.863ZM2 902L0 902C-6.49246e-08 902.53 0.210714 903.039 0.585786 903.414C0.960859 903.789 1.46957 904 2 904L2 902ZM840 902L840 904C841.105 904 842 903.105 842 902L840 902ZM840 11.9758V9.97583C838.896 9.97583 838 10.8713 838 11.9758L840 11.9758ZM840.265 11.9758V13.9758C841.128 13.9758 841.893 13.4222 842.164 12.6027C842.434 11.7832 842.149 10.8826 841.455 10.3688L840.265 11.9758ZM826.799 2L827.99 0.392979C827.283 -0.130994 826.316 -0.130993 825.609 0.392982L826.799 2ZM813.843 11.5992L812.652 13.2063C813.359 13.7302 814.326 13.7302 815.033 13.2063L813.843 11.5992ZM800.886 2L802.077 0.392982C801.369 -0.130994 800.403 -0.130994 799.695 0.392982L800.886 2ZM787.641 11.8126L786.451 13.4196C787.158 13.9436 788.125 13.9436 788.832 13.4196L787.641 11.8126ZM774.396 2L775.587 0.392982C774.88 -0.130994 773.913 -0.130994 773.206 0.392982L774.396 2ZM761.44 11.5992L760.249 13.2063C760.956 13.7302 761.923 13.7302 762.63 13.2063L761.44 11.5992ZM748.483 2L749.673 0.392982C748.966 -0.130994 748 -0.130994 747.292 0.392982L748.483 2ZM735.238 11.8126L734.048 13.4196C734.755 13.9436 735.721 13.9436 736.429 13.4196L735.238 11.8126ZM721.993 2L723.184 0.392982C722.477 -0.130994 721.51 -0.130994 720.803 0.392983L721.993 2ZM709.037 11.5992L707.846 13.2062C708.553 13.7302 709.52 13.7302 710.227 13.2062L709.037 11.5992ZM696.08 2L697.27 0.392978C696.563 -0.130995 695.596 -0.130992 694.889 0.392983L696.08 2ZM682.835 11.8126L681.645 13.4196C682.352 13.9436 683.318 13.9436 684.026 13.4196L682.835 11.8126ZM669.59 2L670.781 0.392978C670.074 -0.130995 669.107 -0.130992 668.4 0.392983L669.59 2ZM656.633 11.5993L655.443 13.2063C656.15 13.7303 657.117 13.7303 657.824 13.2063L656.633 11.5993ZM643.677 2L644.867 0.39298C644.16 -0.130994 643.193 -0.130993 642.486 0.392983L643.677 2ZM631.164 11.2706L629.973 12.8776C630.68 13.4016 631.647 13.4016 632.354 12.8776L631.164 11.2706ZM618.65 2L619.841 0.392978C619.134 -0.130995 618.167 -0.130992 617.46 0.392983L618.65 2ZM605.694 11.5992L604.503 13.2062C605.21 13.7302 606.177 13.7302 606.884 13.2062L605.694 11.5992ZM592.737 2L593.927 0.39298C593.22 -0.130994 592.253 -0.130993 591.546 0.392982L592.737 2ZM579.492 11.8126L578.301 13.4196C579.009 13.9436 579.975 13.9436 580.683 13.4196L579.492 11.8126ZM566.247 2L567.438 0.392982C566.731 -0.130994 565.764 -0.130994 565.057 0.392983L566.247 2ZM553.29 11.5993L552.1 13.2063C552.807 13.7303 553.774 13.7303 554.481 13.2063L553.29 11.5993ZM540.334 2L541.524 0.392978C540.817 -0.130994 539.85 -0.130992 539.143 0.392981L540.334 2ZM527.089 11.8125L525.898 13.4196C526.606 13.9435 527.572 13.9435 528.279 13.4196L527.089 11.8125ZM513.844 2L515.035 0.392981C514.328 -0.130994 513.361 -0.130994 512.654 0.392981L513.844 2ZM500.887 11.5992L499.697 13.2063C500.404 13.7302 501.371 13.7302 502.078 13.2063L500.887 11.5992ZM487.931 2L489.121 0.392983C488.414 -0.130994 487.447 -0.130994 486.74 0.392982L487.931 2ZM474.686 11.8126L473.495 13.4196C474.203 13.9436 475.169 13.9436 475.876 13.4196L474.686 11.8126ZM461.441 2L462.632 0.392982C461.924 -0.130994 460.958 -0.130994 460.251 0.392981L461.441 2ZM448.484 11.5993L447.294 13.2063C448.001 13.7303 448.968 13.7303 449.675 13.2063L448.484 11.5993ZM435.527 2L436.718 0.392983C436.011 -0.130994 435.044 -0.130994 434.337 0.392982L435.527 2ZM422.215 11.8631V13.8631C422.643 13.8631 423.061 13.7253 423.405 13.4701L422.215 11.8631ZM421.798 11.8631L420.607 13.4701C420.952 13.7253 421.369 13.8631 421.798 13.8631V11.8631ZM408.485 2L409.675 0.392981C408.968 -0.130994 408.001 -0.130994 407.294 0.392981L408.485 2ZM395.528 11.5992L394.337 13.2063C395.045 13.7302 396.011 13.7302 396.719 13.2063L395.528 11.5992ZM382.571 2L383.762 0.392981C383.055 -0.130994 382.088 -0.130994 381.381 0.392981L382.571 2ZM369.327 11.8126L368.136 13.4196C368.843 13.9436 369.81 13.9436 370.517 13.4196L369.327 11.8126ZM356.082 2L357.272 0.392981C356.565 -0.130994 355.598 -0.130994 354.891 0.392982L356.082 2ZM343.125 11.5993L341.934 13.2063C342.642 13.7303 343.608 13.7303 344.316 13.2063L343.125 11.5993ZM330.168 2L331.359 0.392982C330.651 -0.130994 329.685 -0.130994 328.978 0.392981L330.168 2ZM316.923 11.8125L315.733 13.4195C316.44 13.9435 317.407 13.9435 318.114 13.4195L316.923 11.8125ZM303.679 2L304.869 0.392981C304.162 -0.130994 303.195 -0.130994 302.488 0.392981L303.679 2ZM290.722 11.5993L289.531 13.2063C290.239 13.7303 291.205 13.7303 291.912 13.2063L290.722 11.5993ZM277.765 2L278.956 0.392981C278.248 -0.130994 277.282 -0.130994 276.574 0.392982L277.765 2ZM264.52 11.8125L263.33 13.4196C264.037 13.9435 265.004 13.9435 265.711 13.4196L264.52 11.8125ZM251.276 2L252.466 0.392982C251.759 -0.130994 250.792 -0.130994 250.085 0.392981L251.276 2ZM238.319 11.5992L237.128 13.2062C237.836 13.7302 238.802 13.7302 239.509 13.2062L238.319 11.5992ZM225.362 2L226.553 0.392982C225.845 -0.130994 224.879 -0.130994 224.172 0.392981L225.362 2ZM212.049 11.8631V13.8631C212.478 13.8631 212.895 13.7253 213.24 13.4701L212.049 11.8631ZM197.408 3.60702L210.721 13.4701L213.102 10.256L199.789 0.392982L197.408 3.60702ZM186.833 13.2063L199.789 3.60702L197.408 0.392981L184.451 9.99225L186.833 13.2063ZM171.495 3.60702L184.451 13.2063L186.833 9.99225L173.876 0.392981L171.495 3.60702ZM160.631 13.4195L173.876 3.60702L171.495 0.392981L158.25 10.2055L160.631 13.4195ZM145.005 3.60702L158.25 13.4195L160.631 10.2055L147.386 0.392982L145.005 3.60702ZM134.43 13.2063L147.386 3.60702L145.005 0.392981L132.048 9.99222L134.43 13.2063ZM119.092 3.60702L132.048 13.2063L134.43 9.99222L121.473 0.392981L119.092 3.60702ZM108.228 13.4196L121.473 3.60702L119.092 0.392982L105.847 10.2055L108.228 13.4196ZM92.6021 3.60702L105.847 13.4196L108.228 10.2055L94.9833 0.392982L92.6021 3.60702ZM82.0265 13.2063L94.9833 3.60702L92.6021 0.392982L79.6454 9.99221L82.0265 13.2063ZM66.6886 3.60702L79.6454 13.2063L82.0265 9.99221L69.0698 0.392982L66.6886 3.60702ZM55.825 13.4196L69.0698 3.60702L66.6886 0.392981L53.4438 10.2056L55.825 13.4196ZM40.199 3.60702L53.4438 13.4196L55.825 10.2056L42.5802 0.392981L40.199 3.60702ZM29.6234 13.2062L42.5802 3.60702L40.199 0.392981L27.2423 9.99221L29.6234 13.2062ZM14.2855 3.60702L27.2423 13.2062L29.6234 9.99221L16.6667 0.392982L14.2855 3.60702ZM3.35378 13.4701L16.6667 3.60702L14.2855 0.392981L0.972614 10.256L3.35378 13.4701ZM2.00011 13.863H2.1632V9.86305H2.00011V13.863ZM4 902L4.00011 11.863L0.000108952 11.863L0 902L4 902ZM840 900L2 900L2 904L840 904L840 900ZM838 11.9758L838 902L842 902L842 11.9758L838 11.9758ZM840.265 9.97583H840V13.9758H840.265V9.97583ZM825.609 3.60702L839.074 13.5828L841.455 10.3688L827.99 0.392979L825.609 3.60702ZM815.033 13.2063L827.99 3.60702L825.609 0.392982L812.652 9.99223L815.033 13.2063ZM799.695 3.60702L812.652 13.2063L815.033 9.99223L802.077 0.392982L799.695 3.60702ZM788.832 13.4196L802.077 3.60702L799.695 0.392982L786.451 10.2056L788.832 13.4196ZM773.206 3.60702L786.451 13.4196L788.832 10.2056L775.587 0.392982L773.206 3.60702ZM762.63 13.2063L775.587 3.60702L773.206 0.392982L760.249 9.99222L762.63 13.2063ZM747.292 3.60702L760.249 13.2063L762.63 9.99222L749.673 0.392982L747.292 3.60702ZM736.429 13.4196L749.673 3.60702L747.292 0.392982L734.048 10.2056L736.429 13.4196ZM720.803 3.60702L734.048 13.4196L736.429 10.2056L723.184 0.392982L720.803 3.60702ZM710.227 13.2062L723.184 3.60702L720.803 0.392983L707.846 9.9922L710.227 13.2062ZM694.889 3.60702L707.846 13.2062L710.227 9.9922L697.27 0.392978L694.889 3.60702ZM684.026 13.4196L697.27 3.60702L694.889 0.392983L681.644 10.2055L684.026 13.4196ZM668.4 3.60702L681.645 13.4196L684.026 10.2055L670.781 0.392978L668.4 3.60702ZM657.824 13.2063L670.781 3.60702L668.4 0.392983L655.443 9.99224L657.824 13.2063ZM642.486 3.60702L655.443 13.2063L657.824 9.99224L644.867 0.39298L642.486 3.60702ZM632.354 12.8776L644.867 3.60702L642.486 0.392983L629.973 9.66355L632.354 12.8776ZM617.46 3.60702L629.973 12.8776L632.354 9.66354L619.841 0.392978L617.46 3.60702ZM606.884 13.2062L619.841 3.60702L617.46 0.392983L604.503 9.9922L606.884 13.2062ZM591.546 3.60702L604.503 13.2062L606.884 9.9922L593.927 0.39298L591.546 3.60702ZM580.683 13.4196L593.927 3.60702L591.546 0.392982L578.301 10.2056L580.683 13.4196ZM565.057 3.60702L578.301 13.4196L580.683 10.2056L567.438 0.392982L565.057 3.60702ZM554.481 13.2063L567.438 3.60702L565.057 0.392983L552.1 9.99224L554.481 13.2063ZM539.143 3.60702L552.1 13.2063L554.481 9.99224L541.524 0.392978L539.143 3.60702ZM528.279 13.4196L541.524 3.60702L539.143 0.392981L525.898 10.2055L528.279 13.4196ZM512.654 3.60702L525.898 13.4196L528.279 10.2055L515.035 0.392981L512.654 3.60702ZM502.078 13.2063L515.035 3.60702L512.654 0.392981L499.697 9.99222L502.078 13.2063ZM486.74 3.60702L499.697 13.2063L502.078 9.99222L489.121 0.392983L486.74 3.60702ZM475.876 13.4196L489.121 3.60702L486.74 0.392982L473.495 10.2056L475.876 13.4196ZM460.251 3.60702L473.495 13.4196L475.876 10.2056L462.632 0.392982L460.251 3.60702ZM449.675 13.2063L462.632 3.60702L460.251 0.392981L447.294 9.99226L449.675 13.2063ZM434.337 3.60702L447.294 13.2063L449.675 9.99226L436.718 0.392983L434.337 3.60702ZM423.405 13.4701L436.718 3.60702L434.337 0.392982L421.024 10.2561L423.405 13.4701ZM421.798 13.8631H422.215V9.86308H421.798V13.8631ZM407.294 3.60702L420.607 13.4701L422.988 10.2561L409.675 0.392981L407.294 3.60702ZM396.719 13.2063L409.675 3.60702L407.294 0.392981L394.337 9.99221L396.719 13.2063ZM381.381 3.60702L394.337 13.2063L396.719 9.99221L383.762 0.392981L381.381 3.60702ZM370.517 13.4196L383.762 3.60702L381.381 0.392981L368.136 10.2056L370.517 13.4196ZM354.891 3.60702L368.136 13.4196L370.517 10.2056L357.272 0.392981L354.891 3.60702ZM344.316 13.2063L357.272 3.60702L354.891 0.392982L341.934 9.99225L344.316 13.2063ZM328.978 3.60702L341.934 13.2063L344.316 9.99225L331.359 0.392982L328.978 3.60702ZM318.114 13.4195L331.359 3.60702L328.978 0.392981L315.733 10.2055L318.114 13.4195ZM302.488 3.60702L315.733 13.4195L318.114 10.2055L304.869 0.392981L302.488 3.60702ZM291.912 13.2063L304.869 3.60702L302.488 0.392981L289.531 9.99226L291.912 13.2063ZM276.574 3.60702L289.531 13.2063L291.912 9.99226L278.956 0.392981L276.574 3.60702ZM265.711 13.4196L278.956 3.60702L276.574 0.392982L263.33 10.2055L265.711 13.4196ZM250.085 3.60702L263.33 13.4196L265.711 10.2055L252.466 0.392982L250.085 3.60702ZM239.509 13.2062L252.466 3.60702L250.085 0.392981L237.128 9.9922L239.509 13.2062ZM224.172 3.60702L237.128 13.2062L239.509 9.9922L226.553 0.392982L224.172 3.60702ZM213.24 13.4701L226.553 3.60702L224.172 0.392981L210.859 10.256L213.24 13.4701ZM211.912 13.8631H212.049V9.86306H211.912V13.8631Z" fill="white" mask="url(#path-1-outside-1_50_9583)"/>
</g>
</svg>
